<svg xmlns="http://www.w3.org/2000/svg" width="19" height="19" viewBox="0 0 19 19">
  <g id="Group_5" data-name="Group 5" transform="translate(-1862.617 5252.383)">
    <circle id="Ellipse_1" data-name="Ellipse 1" cx="9.5" cy="9.5" r="9.5" transform="translate(1862.617 -5252.383)" fill="#fff"/>
    <path id="wind" d="M14.967,9.546a1.773,1.773,0,0,0-3.546,0h.886a.886.886,0,1,1,.885.886H3v.886H13.195a1.774,1.774,0,0,0,1.772-1.773ZM10.978,7.773a1.773,1.773,0,0,0-3.546,0h.886a.886.886,0,1,1,.884.886H3.886v.886h5.32a1.773,1.773,0,0,0,1.771-1.773Zm2.216,5.762a1.331,1.331,0,0,1-1.33,1.33h0a1.329,1.329,0,0,1-1.33-1.326v0h.886a.442.442,0,0,0,.443.443h0a.442.442,0,0,0,.443-.443h0a.444.444,0,0,0-.447-.443h-6.2V12.2h6.2a1.331,1.331,0,0,1,1.33,1.33Z" transform="translate(1863.134 -5253.093)" fill="#1f1f21" fill-rule="evenodd"/>
  </g>
</svg>
